<mxfile host="app.diagrams.net" modified="2023-08-27T00:58:29.312Z" agent="Mozilla/5.0 (Windows NT 10.0; Win64; x64) AppleWebKit/537.36 (KHTML, like Gecko) Chrome/116.0.0.0 Safari/537.36" etag="3sIXsWTv6jEjh7JS1-nf" version="21.6.9" type="github">
  <diagram name="Page-1" id="cTtoH7smdvxLnrKp0sLw">
    <mxGraphModel dx="954" dy="612" grid="1" gridSize="10" guides="1" tooltips="1" connect="1" arrows="1" fold="1" page="1" pageScale="1" pageWidth="850" pageHeight="1100" math="0" shadow="0">
      <root>
        <mxCell id="0" />
        <mxCell id="1" parent="0" />
        <mxCell id="IIuk6wcvOFShDzYcvnFQ-1" value="&lt;hr&gt;" style="whiteSpace=wrap;html=1;aspect=fixed;" vertex="1" parent="1">
          <mxGeometry x="240" y="160" width="160" height="160" as="geometry" />
        </mxCell>
        <mxCell id="IIuk6wcvOFShDzYcvnFQ-2" value="Tasks" style="rounded=0;whiteSpace=wrap;html=1;" vertex="1" parent="1">
          <mxGeometry x="240" y="160" width="160" height="40" as="geometry" />
        </mxCell>
        <mxCell id="IIuk6wcvOFShDzYcvnFQ-3" value="&amp;nbsp; &amp;nbsp; ID" style="rounded=0;whiteSpace=wrap;html=1;align=left;" vertex="1" parent="1">
          <mxGeometry x="270" y="200" width="130" height="30" as="geometry" />
        </mxCell>
        <mxCell id="IIuk6wcvOFShDzYcvnFQ-4" value="" style="rounded=0;whiteSpace=wrap;html=1;" vertex="1" parent="1">
          <mxGeometry x="240" y="200" width="30" height="120" as="geometry" />
        </mxCell>
        <mxCell id="IIuk6wcvOFShDzYcvnFQ-5" value="PK" style="rounded=0;whiteSpace=wrap;html=1;" vertex="1" parent="1">
          <mxGeometry x="240" y="200" width="30" height="30" as="geometry" />
        </mxCell>
        <mxCell id="IIuk6wcvOFShDzYcvnFQ-6" value="Title" style="rounded=0;whiteSpace=wrap;html=1;align=left;" vertex="1" parent="1">
          <mxGeometry x="270" y="230" width="130" height="30" as="geometry" />
        </mxCell>
        <mxCell id="IIuk6wcvOFShDzYcvnFQ-7" value="Description" style="rounded=0;whiteSpace=wrap;html=1;align=left;" vertex="1" parent="1">
          <mxGeometry x="270" y="260" width="130" height="30" as="geometry" />
        </mxCell>
        <mxCell id="IIuk6wcvOFShDzYcvnFQ-9" style="edgeStyle=orthogonalEdgeStyle;rounded=0;orthogonalLoop=1;jettySize=auto;html=1;exitX=0.5;exitY=1;exitDx=0;exitDy=0;" edge="1" parent="1" source="IIuk6wcvOFShDzYcvnFQ-8">
          <mxGeometry relative="1" as="geometry">
            <mxPoint x="340" y="330" as="targetPoint" />
          </mxGeometry>
        </mxCell>
        <mxCell id="IIuk6wcvOFShDzYcvnFQ-8" value="Status" style="rounded=0;whiteSpace=wrap;html=1;align=left;" vertex="1" parent="1">
          <mxGeometry x="270" y="290" width="130" height="30" as="geometry" />
        </mxCell>
      </root>
    </mxGraphModel>
  </diagram>
</mxfile>
